<svg width="412" height="69" viewBox="0 0 412 69" fill="none" xmlns="http://www.w3.org/2000/svg">
<path d="M411.27 0H0V68.8857H411.27V0Z" transform="translate(0.365723 0.114197)" fill="#4D2D19"/>
<path d="M30.6666 0H0V12.7613H30.6666V0Z" transform="translate(0.365723 4.73169)" fill="#613007"/>
<path d="M30.6667 0H0V12.7613H30.6667V0Z" transform="translate(34.813 4.73169)" fill="#613007"/>
<path d="M30.6666 0H0V12.7613H30.6666V0Z" transform="translate(69.6807 4.73169)" fill="#613007"/>
<path d="M30.6667 0H0V12.7613H30.6667V0Z" transform="translate(104.128 4.73169)" fill="#613007"/>
<path d="M30.6667 0H0V12.7613H30.6667V0Z" transform="translate(138.575 4.73169)" fill="#613007"/>
<path d="M30.6667 0H0V12.7613H30.6667V0Z" transform="translate(173.443 4.73169)" fill="#613007"/>
<path d="M30.6667 0H0V12.7613H30.6667V0Z" transform="translate(207.89 4.73169)" fill="#613007"/>
<path d="M30.6667 0H0V12.7613H30.6667V0Z" transform="translate(242.758 4.73169)" fill="#613007"/>
<path d="M30.6667 0H0V12.7613H30.6667V0Z" transform="translate(277.206 4.73169)" fill="#613007"/>
<path d="M30.6667 0H0V12.7613H30.6667V0Z" transform="translate(311.653 4.73169)" fill="#613007"/>
<path d="M30.6666 0H0V12.7613H30.6666V0Z" transform="translate(346.521 4.73169)" fill="#613007"/>
<path d="M30.6666 0H0V12.7613H30.6666V0Z" transform="translate(380.968 4.73169)" fill="#613007"/>
<path d="M30.6667 0H0V12.7613H30.6667V0Z" transform="translate(17.5886 20.6832)" fill="#613007"/>
<path d="M13.4429 0H0V12.7613H13.4429V0Z" transform="translate(0.365723 20.6832)" fill="#613007"/>
<path d="M30.6667 0H0V12.7613H30.6667V0Z" transform="translate(52.4565 20.6832)" fill="#613007"/>
<path d="M30.6667 0H0V12.7613H30.6667V0Z" transform="translate(86.9038 20.6832)" fill="#613007"/>
<path d="M30.6667 0H0V12.7613H30.6667V0Z" transform="translate(121.352 20.6832)" fill="#613007"/>
<path d="M30.6667 0H0V12.7613H30.6667V0Z" transform="translate(156.219 20.6832)" fill="#613007"/>
<path d="M30.6667 0H0V12.7613H30.6667V0Z" transform="translate(190.667 20.6832)" fill="#613007"/>
<path d="M30.6666 0H0V12.7613H30.6666V0Z" transform="translate(225.115 20.6832)" fill="#613007"/>
<path d="M30.6667 0H0V12.7613H30.6667V0Z" transform="translate(259.982 20.6832)" fill="#613007"/>
<path d="M30.6666 0H0V12.7613H30.6666V0Z" transform="translate(294.43 20.6832)" fill="#613007"/>
<path d="M30.6667 0H0V12.7613H30.6667V0Z" transform="translate(329.297 20.6832)" fill="#613007"/>
<path d="M30.6666 0H0V12.7613H30.6666V0Z" transform="translate(363.745 20.6832)" fill="#613007"/>
<path d="M13.443 0H0V12.7613H13.443V0Z" transform="translate(398.192 20.6832)" fill="#613007"/>
<path d="M30.6666 0H0V12.7613H30.6666V0Z" transform="translate(0.365723 36.2153)" fill="#613007"/>
<path d="M30.6667 0H0V12.7613H30.6667V0Z" transform="translate(34.813 36.2153)" fill="#613007"/>
<path d="M30.6666 0H0V12.7613H30.6666V0Z" transform="translate(69.6807 36.2153)" fill="#613007"/>
<path d="M30.6667 0H0V12.7613H30.6667V0Z" transform="translate(104.128 36.2153)" fill="#613007"/>
<path d="M30.6667 0H0V12.7613H30.6667V0Z" transform="translate(138.575 36.2153)" fill="#613007"/>
<path d="M30.6667 0H0V12.7613H30.6667V0Z" transform="translate(173.443 36.2153)" fill="#613007"/>
<path d="M30.6667 0H0V12.7613H30.6667V0Z" transform="translate(207.89 36.2153)" fill="#613007"/>
<path d="M30.6667 0H0V12.7613H30.6667V0Z" transform="translate(242.758 36.2153)" fill="#613007"/>
<path d="M30.6667 0H0V12.7613H30.6667V0Z" transform="translate(277.206 36.2153)" fill="#613007"/>
<path d="M30.6667 0H0V12.7613H30.6667V0Z" transform="translate(311.653 36.2153)" fill="#613007"/>
<path d="M30.6666 0H0V12.7613H30.6666V0Z" transform="translate(346.521 36.2153)" fill="#613007"/>
<path d="M30.6666 0H0V12.7613H30.6666V0Z" transform="translate(380.968 36.2153)" fill="#613007"/>
<path d="M30.6667 0H0V12.7613H30.6667V0Z" transform="translate(17.5886 52.1666)" fill="#613007"/>
<path d="M13.4429 0H0V12.7613H13.4429V0Z" transform="translate(0.365723 52.1666)" fill="#613007"/>
<path d="M30.6667 0H0V12.7613H30.6667V0Z" transform="translate(52.4565 52.1666)" fill="#613007"/>
<path d="M30.6667 0H0V12.7613H30.6667V0Z" transform="translate(86.9038 52.1666)" fill="#613007"/>
<path d="M30.6667 0H0V12.7613H30.6667V0Z" transform="translate(121.352 52.1666)" fill="#613007"/>
<path d="M30.6667 0H0V12.7613H30.6667V0Z" transform="translate(156.219 52.1666)" fill="#613007"/>
<path d="M30.6667 0H0V12.7613H30.6667V0Z" transform="translate(190.667 52.1666)" fill="#613007"/>
<path d="M30.6666 0H0V12.7613H30.6666V0Z" transform="translate(225.115 52.1666)" fill="#613007"/>
<path d="M30.6667 0H0V12.7613H30.6667V0Z" transform="translate(259.982 52.1666)" fill="#613007"/>
<path d="M30.6666 0H0V12.7613H30.6666V0Z" transform="translate(294.43 52.1666)" fill="#613007"/>
<path d="M30.6667 0H0V12.7613H30.6667V0Z" transform="translate(329.297 52.1666)" fill="#613007"/>
<path d="M30.6666 0H0V12.7613H30.6666V0Z" transform="translate(363.745 52.1666)" fill="#613007"/>
<path d="M13.443 0H0V12.7613H13.443V0Z" transform="translate(398.192 52.1666)" fill="#613007"/>
</svg>
